<svg xmlns="http://www.w3.org/2000/svg" width="410pt" height="241pt" viewBox="0 0 410 241"><clipPath id="a"><path transform="matrix(.1 0 0 -.1 0 241)" d="M0 0h4094.72v2403.99H0Z"/></clipPath><g clip-path="url(#a)"><path d="M398.588 171.962h-28.094V63.968h28.094v107.994" fill="#ecddec"/><path stroke-width="1" stroke-miterlimit="10" fill="none" stroke="#bfbbdd" d="M398.588 171.962h-28.094V63.968h28.094v107.994Z"/><path d="M75.97 240.5H47.879V1.29h28.09V240.5" fill="#e2f3f4"/><path stroke-width="1" stroke-miterlimit="10" fill="none" stroke="#77cee2" d="M75.97 240.5H47.879V1.29h28.09V240.5Z"/><path d="M347.287 238.891H96.053V2.004h251.234v236.887" fill="#f4faf6"/><path stroke-width="1" stroke-miterlimit="10" fill="none" stroke="#b9e2e2" d="M347.287 238.891H96.053V2.004h251.234v236.887Z"/><path d="M306.648 215.233H140.861V24.272h165.787v190.96" fill="#e4f2e9"/><path stroke-width="1" stroke-miterlimit="10" fill="none" stroke="#96d4c6" d="M306.648 215.233H140.861V24.272h165.787v190.96Z"/><path d="M37.568 240.31H9.477V1.102h28.091v239.21" fill="#feefef"/><path stroke-width="1" stroke-miterlimit="10" fill="none" stroke="#ffcad3" d="M37.568 240.31H9.477V1.102h28.091v239.21Z"/><path stroke-width=".6150000000000001" stroke-linecap="round" stroke-linejoin="round" fill="none" stroke="#05050a" d="M13.809 19.681c0-4.807 3.902-8.708 8.71-8.708a8.705 8.705 0 0 1 8.71 8.708 8.707 8.707 0 0 1-8.71 8.712c-4.808 0-8.71-3.902-8.71-8.712ZM13.809 48.709c0-4.807 3.902-8.709 8.71-8.709a8.706 8.706 0 0 1 8.71 8.709 8.706 8.706 0 0 1-8.71 8.712 8.713 8.713 0 0 1-8.71-8.712ZM13.809 77.737c0-4.807 3.902-8.709 8.71-8.709a8.706 8.706 0 0 1 8.71 8.709 8.706 8.706 0 0 1-8.71 8.711 8.713 8.713 0 0 1-8.71-8.711ZM13.809 226.959a8.712 8.712 0 0 1 8.71-8.711c4.818 0 8.71 3.9 8.71 8.711a8.705 8.705 0 0 1-8.71 8.708c-4.808 0-8.71-3.901-8.71-8.708Z"/><path stroke-width=".6150000000000001" stroke-linecap="round" stroke-linejoin="round" fill="none" stroke="#6f7378" d="M30.94 69.028 13.827 86.144M30.94 86.448 13.398 69.463M31.332 10.39 14.217 27.506M30.94 27.8 13.393 10.816"/><path d="M23.098 100.965a1.155 1.155 0 0 1-1.153-1.163c0-.639.516-1.154 1.153-1.154.65 0 1.165.515 1.165 1.154 0 .647-.515 1.163-1.165 1.163M23.098 116.058a1.155 1.155 0 0 1-1.153-1.155c0-.649.516-1.165 1.153-1.165.65 0 1.165.516 1.165 1.165 0 .637-.515 1.155-1.165 1.155M23.098 108.511a1.152 1.152 0 0 1-1.153-1.154 1.159 1.159 0 1 1 2.318 0c0 .639-.515 1.154-1.165 1.154M23.198 129.41a1.15 1.15 0 0 1-1.154-1.155c0-.646.513-1.162 1.154-1.162a1.16 1.16 0 1 1 0 2.317M23.198 144.51a1.156 1.156 0 0 1-1.154-1.162c0-.64.513-1.164 1.154-1.164a1.163 1.163 0 1 1 0 2.326M23.198 136.967a1.16 1.16 0 0 1-1.154-1.165c0-.638.513-1.162 1.154-1.162a1.164 1.164 0 1 1 0 2.327M23.198 158.447a1.158 1.158 0 0 1-1.154-1.161 1.16 1.16 0 1 1 2.319 0c0 .637-.52 1.16-1.165 1.16M23.198 173.541c-.641 0-1.154-.52-1.154-1.156 0-.65.513-1.165 1.154-1.165a1.16 1.16 0 1 1 0 2.321M23.198 165.994a1.153 1.153 0 0 1-1.154-1.165 1.16 1.16 0 1 1 1.154 1.165M23.198 187.476c-.641 0-1.154-.52-1.154-1.162a1.16 1.16 0 1 1 1.154 1.162M23.198 202.571a1.153 1.153 0 0 1-1.154-1.16c0-.641.513-1.162 1.154-1.162a1.162 1.162 0 1 1 0 2.322M23.198 195.025a1.156 1.156 0 0 1-1.154-1.162c0-.643.513-1.162 1.154-1.162a1.16 1.16 0 1 1 0 2.324" fill="#05050a" fill-rule="evenodd"/><path stroke-width=".6150000000000001" stroke-linecap="round" stroke-dasharray="1.8453,1.8453" stroke-linejoin="round" fill="none" stroke="#4d5151" d="M30.656 91.674H15.56v117.864h15.096V91.674Z"/><path stroke-width=".4" stroke-linecap="round" stroke-linejoin="round" fill="none" stroke="#4d5151" d="M147.817 72.193 69.734 49.124"/><path d="m149.983 72.833-2.684-2.149.356 1.461-1.093 1.034 3.421-.346" fill="#4d5151"/><path stroke-width=".4" stroke-linecap="round" stroke-linejoin="round" fill="none" stroke="#4d5151" d="m148.941 39.166-79.207-19.06"/><path d="m151.138 39.695-2.791-2.01.43 1.442-1.039 1.087 3.4-.519" fill="#4d5151"/><path stroke-width=".4" stroke-linecap="round" stroke-linejoin="round" fill="none" stroke="#4d5151" d="M148.035 46.419 69.631 77.926"/><path d="m150.131 45.577-3.439-.02 1.186.925-.216 1.488 2.469-2.393" fill="#4d5151"/><path stroke-width=".4" stroke-linecap="round" stroke-linejoin="round" fill="none" stroke="#4d5151" d="M149.833 49.662 70.029 225.786"/><path d="m150.765 47.604-2.499 2.363 1.497-.151.873 1.225.129-3.437" fill="#4d5151"/><path d="M385.063 123.61a1.157 1.157 0 1 1 0-2.316 1.157 1.157 0 1 1 0 2.316M385.063 138.711c-.64 0-1.16-.526-1.16-1.163 0-.639.52-1.164 1.16-1.164.642 0 1.162.525 1.162 1.164 0 .637-.52 1.163-1.162 1.163M385.063 131.157c-.64 0-1.16-.515-1.16-1.155a1.161 1.161 0 1 1 2.322 0c0 .64-.52 1.155-1.162 1.155" fill="#05050a" fill-rule="evenodd"/><path stroke-width=".4" stroke-linecap="round" stroke-linejoin="round" fill="none" stroke="#4d5151" d="M148.936 192.293 69.63 77.926"/><path d="m150.224 194.15-.745-3.358-.639 1.362-1.5.121 2.884 1.875" fill="#4d5151"/><path stroke-width=".4" stroke-linecap="round" stroke-linejoin="round" fill="none" stroke="#4d5151" d="M150.249 187.86 69.631 48.899"/><path d="m151.382 189.815-.472-3.406-.746 1.306h-1.504l2.722 2.1" fill="#4d5151"/><path stroke-width=".4" stroke-linecap="round" stroke-linejoin="round" fill="none" stroke="#4d5151" d="M153.048 184.908 69.63 19.87"/><path d="m154.067 186.924-.275-3.428-.82 1.261-1.502-.088 2.597 2.255" fill="#4d5151"/><path stroke-width=".6150000000000001" stroke-linecap="round" stroke-linejoin="round" fill="none" stroke="#05050a" d="M52.21 19.87c0-4.807 3.902-8.708 8.712-8.708a8.705 8.705 0 0 1 8.709 8.708 8.707 8.707 0 0 1-8.71 8.712 8.713 8.713 0 0 1-8.71-8.712ZM52.21 48.898c0-4.807 3.902-8.709 8.712-8.709a8.706 8.706 0 0 1 8.709 8.709 8.706 8.706 0 0 1-8.71 8.712 8.713 8.713 0 0 1-8.71-8.712ZM52.21 77.926c0-4.807 3.902-8.709 8.712-8.709a8.706 8.706 0 0 1 8.709 8.709 8.706 8.706 0 0 1-8.71 8.711 8.713 8.713 0 0 1-8.71-8.711ZM52.21 227.148c0-4.81 3.902-8.71 8.712-8.71 4.817 0 8.709 3.9 8.709 8.71a8.705 8.705 0 0 1-8.71 8.708c-4.809 0-8.71-3.9-8.71-8.708Z"/><path d="m62.3 20.155.993-.483h.099v3.446c0 .228.008.371.03.428a.225.225 0 0 0 .118.129c.058.03.18.047.366.051v.111h-1.534v-.111c.19-.004.316-.021.375-.05a.243.243 0 0 0 .115-.118c.023-.049.033-.195.033-.44v-2.204c0-.298-.01-.488-.03-.572a.262.262 0 0 0-.076-.142.21.21 0 0 0-.134-.045.805.805 0 0 0-.311.093l-.043-.093M64.395 51.877l-.286.783h-2.402v-.111c.708-.644 1.206-1.17 1.492-1.578.288-.408.434-.782.434-1.119a.888.888 0 0 0-.24-.637.757.757 0 0 0-.565-.249.886.886 0 0 0-.538.176 1.03 1.03 0 0 0-.356.515h-.108c.049-.371.178-.655.385-.852.207-.198.465-.298.776-.298.33 0 .604.106.825.318a1 1 0 0 1 .332.751c0 .205-.048.412-.144.617-.148.325-.388.668-.72 1.029-.497.545-.81.873-.932.984h1.063c.216 0 .367-.007.455-.023a.595.595 0 0 0 .235-.098.643.643 0 0 0 .182-.208h.112M61.889 78.44c.116-.276.263-.488.441-.637a.987.987 0 0 1 .664-.224c.329 0 .579.105.752.319.133.158.2.328.2.508 0 .298-.186.604-.56.921.25.099.439.24.57.422.126.183.19.397.19.644 0 .353-.11.659-.335.918-.295.338-.717.506-1.275.506-.274 0-.461-.034-.561-.102-.098-.069-.15-.142-.15-.221 0-.057.025-.109.07-.153a.252.252 0 0 1 .173-.066.51.51 0 0 1 .153.024c.033.011.11.046.23.111.123.063.206.1.25.112a.839.839 0 0 0 .239.033.717.717 0 0 0 .535-.237.788.788 0 0 0 .226-.563c0-.159-.035-.314-.107-.464a.783.783 0 0 0-.17-.256 1.234 1.234 0 0 0-.356-.218 1.123 1.123 0 0 0-.46-.099h-.095v-.089c.159-.02.318-.078.478-.172a.867.867 0 0 0 .455-.777.667.667 0 0 0-.194-.501.661.661 0 0 0-.484-.191c-.311 0-.568.166-.78.499l-.1-.047M61.682 229.065c.203-.2.32-.315.355-.345.092-.076.186-.135.29-.177a.828.828 0 0 1 .309-.063c.17 0 .321.049.446.15.123.1.208.245.248.435.208-.24.38-.397.522-.473a.934.934 0 0 1 .438-.112c.146 0 .274.037.388.112a.736.736 0 0 1 .268.368c.047.116.067.297.067.546v1.182c0 .172.014.29.039.354a.25.25 0 0 0 .112.112c.054.032.14.047.262.047v.107h-1.354v-.107h.055c.12 0 .213-.023.275-.069a.258.258 0 0 0 .1-.152c.009-.035.013-.132.013-.292v-1.182c0-.225-.027-.382-.081-.474-.079-.129-.203-.192-.375-.192a.695.695 0 0 0-.318.08 1.725 1.725 0 0 0-.391.295l-.006.033.006.129v1.31c0 .19.012.306.033.352.02.047.058.085.119.115.058.032.155.047.297.047v.107H62.41v-.107c.15 0 .254-.018.312-.054a.297.297 0 0 0 .119-.162c.009-.034.014-.133.014-.297v-1.182c0-.225-.033-.384-.098-.483a.423.423 0 0 0-.371-.192.656.656 0 0 0-.319.087c-.169.088-.295.187-.386.297v1.473c0 .18.013.297.037.351a.258.258 0 0 0 .113.122c.05.027.146.04.297.04v.107H60.77v-.107a.6.6 0 0 0 .264-.04.24.24 0 0 0 .113-.129c.029-.06.04-.174.04-.344v-1.05c0-.3-.01-.497-.026-.586-.016-.066-.036-.111-.067-.135-.03-.026-.07-.038-.123-.038a.564.564 0 0 0-.2.045l-.045-.108.827-.336h.13v.585" fill="#05050a"/><path stroke-width=".6150000000000001" stroke-linecap="round" stroke-linejoin="round" fill="none" stroke="#6f7378" d="M69.341 69.217 52.23 86.333M69.341 86.637 51.8 69.652M69.734 10.579 52.62 27.695M69.341 27.989 51.795 11.005"/><path stroke-width=".6150000000000001" stroke-linecap="round" stroke-linejoin="round" fill="none" stroke="#05050a" d="M375.833 80.418c0-4.809 3.897-8.711 8.708-8.711s8.709 3.902 8.709 8.711a8.71 8.71 0 0 1-17.417 0ZM375.708 154.965a8.707 8.707 0 0 1 8.709-8.708 8.708 8.708 0 0 1 8.709 8.708 8.708 8.708 0 0 1-8.709 8.709 8.707 8.707 0 0 1-8.709-8.71Z"/><path d="m385.959 81.174 1.009-.52h.1v3.692c0 .245.01.397.03.457a.238.238 0 0 0 .12.14c.061.031.185.049.374.053v.12h-1.56v-.12c.196-.004.322-.021.379-.052a.254.254 0 0 0 .119-.126c.024-.052.034-.209.034-.472v-2.36c0-.318-.01-.522-.031-.612a.254.254 0 0 0-.078-.152.202.202 0 0 0-.136-.048.762.762 0 0 0-.314.1l-.046-.1" fill="#05050a"/><path stroke-width=".6150000000000001" stroke-linecap="round" stroke-linejoin="round" fill="none" stroke="#05050a" d="M375.833 105.135a8.708 8.708 0 0 1 17.417 0 8.71 8.71 0 1 1-17.417 0Z"/><path d="m388.088 109.204-.298.842h-2.52v-.119c.741-.692 1.262-1.257 1.566-1.696.302-.438.452-.84.452-1.202a.97.97 0 0 0-.248-.684.786.786 0 0 0-.595-.268.908.908 0 0 0-.565.189c-.167.126-.291.31-.371.553h-.116c.052-.398.186-.702.405-.915.218-.213.487-.32.813-.32.348 0 .636.114.868.342.233.228.348.497.348.806 0 .221-.051.442-.151.664-.155.348-.407.717-.755 1.105-.524.586-.851.937-.981 1.058h1.116c.225 0 .385-.008.476-.026a.594.594 0 0 0 .247-.105.652.652 0 0 0 .193-.224h.116" fill="#05050a"/><path stroke-width=".4" stroke-miterlimit="10" fill="none" stroke="#4d5151" d="m373.927 153.01-75.492-56.465"/><path d="m373.917 151.524-.307 1.251-1.113.647 2.96.734-1.54-2.632" fill="#4d5151"/><path stroke-width=".4" stroke-miterlimit="10" fill="none" stroke="#4d5151" d="m373.736 81.552-74.572 14.692"/><path d="m372.626 80.563.723 1.066-.265 1.259 2.526-1.706-2.984-.619" fill="#4d5151"/><path stroke-width=".4" stroke-miterlimit="10" fill="none" stroke="#4d5151" d="m373.929 78.251-75.252-6.386"/><path d="m373.134 76.994.401 1.223-.601 1.138 2.899-.943-2.699-1.418" fill="#4d5151"/><path stroke-width=".4" stroke-miterlimit="10" fill="none" stroke="#4d5151" d="m374.694 84.492-75.89 83.963"/><path d="m373.213 84.364 1.217.421.541 1.169 1.005-2.879-2.763 1.289" fill="#4d5151"/><path stroke-width=".4" stroke-miterlimit="10" fill="none" stroke="#4d5151" d="m374.288 102.067-75.725-29.938"/><path d="m373.888 100.635.033 1.287-.904.917 3.047-.069-2.176-2.135" fill="#4d5151"/><path stroke-width=".4" stroke-miterlimit="10" fill="none" stroke="#4d5151" d="m373.708 104.925-75.273-8.38"/><path d="m372.945 103.648.369 1.233-.63 1.122 2.922-.866-2.661-1.489" fill="#4d5151"/><path stroke-width=".4" stroke-miterlimit="10" fill="none" stroke="#4d5151" d="m374.92 150.32-76.243-78.455"/><path d="m375.144 148.849-.499 1.187-1.202.465 2.808 1.188-1.107-2.84" fill="#4d5151"/><path stroke-width=".4" stroke-miterlimit="10" fill="none" stroke="#4d5151" d="m374.123 107.644-74.647 60.581"/><path d="m372.679 107.29 1.137.603.356 1.237 1.434-2.69-2.927.85" fill="#4d5151"/><path stroke-width=".4" stroke-miterlimit="10" fill="none" stroke="#4d5151" d="m373.724 155.68-74.955 12.976"/><path d="m372.637 154.666.697 1.082-.294 1.253 2.566-1.646-2.969-.689" fill="#4d5151"/><path d="M289.772 138.092a1.169 1.169 0 0 1-1.162-1.165c0-.64.525-1.162 1.162-1.162.64 0 1.166.522 1.166 1.162a1.17 1.17 0 0 1-1.166 1.165M289.772 153.182a1.16 1.16 0 0 1-1.162-1.155 1.163 1.163 0 0 1 2.328 0c0 .64-.526 1.155-1.166 1.155M289.772 145.635a1.162 1.162 0 0 1-1.162-1.161c0-.64.525-1.155 1.162-1.155.64 0 1.166.515 1.166 1.155 0 .646-.526 1.161-1.166 1.161M289.772 113.701a1.162 1.162 0 0 1-1.162-1.155 1.164 1.164 0 1 1 2.328 0c0 .637-.526 1.155-1.166 1.155M289.772 128.801a1.168 1.168 0 0 1-1.162-1.164c0-.641.525-1.162 1.162-1.162.64 0 1.166.521 1.166 1.162a1.17 1.17 0 0 1-1.166 1.164M289.772 121.255a1.168 1.168 0 0 1-1.162-1.166c0-.636.525-1.162 1.162-1.162.64 0 1.166.526 1.166 1.162a1.17 1.17 0 0 1-1.166 1.166M158.931 127.092a1.17 1.17 0 0 1-1.164-1.165 1.164 1.164 0 1 1 1.164 1.165M158.931 142.182a1.161 1.161 0 0 1-1.164-1.155c0-.647.526-1.162 1.164-1.162a1.16 1.16 0 1 1 0 2.317M158.931 134.635a1.163 1.163 0 0 1-1.164-1.161c0-.64.526-1.155 1.164-1.155a1.158 1.158 0 1 1 0 2.316M158.931 96.899a1.169 1.169 0 0 1-1.164-1.162c0-.64.526-1.163 1.164-1.163.642 0 1.163.523 1.163 1.163 0 .638-.521 1.162-1.163 1.162M158.931 111.991a1.163 1.163 0 0 1-1.164-1.155 1.163 1.163 0 1 1 2.327 0 1.16 1.16 0 0 1-1.163 1.155M158.931 104.445a1.163 1.163 0 0 1-1.164-1.165 1.165 1.165 0 0 1 2.327 0 1.16 1.16 0 0 1-1.163 1.165M158.931 157.282a1.17 1.17 0 0 1-1.164-1.162c0-.64.526-1.165 1.164-1.165.642 0 1.163.525 1.163 1.165 0 .637-.521 1.162-1.163 1.162M158.931 172.375a1.163 1.163 0 0 1-1.164-1.156c0-.647.526-1.165 1.164-1.165a1.16 1.16 0 1 1 0 2.321M158.931 164.828a1.164 1.164 0 0 1-1.164-1.165 1.16 1.16 0 0 1 1.164-1.152 1.157 1.157 0 1 1 0 2.317" fill="#05050a" fill-rule="evenodd"/><path stroke-width=".4" stroke-linecap="round" stroke-dasharray="2,2" stroke-linejoin="round" fill="none" stroke="#4d5151" d="M278.895 95.3H242.18"/><path d="m281.153 95.3-3.183-1.301.756 1.301-.756 1.3 3.183-1.3" fill="#4d5151"/><path stroke-width=".4" stroke-linecap="round" stroke-dasharray="2,2" stroke-linejoin="round" fill="none" stroke="#4d5151" d="m278.895 71.727-36.715.138"/><path d="m281.153 71.719-3.188-1.289.761 1.298-.751 1.304 3.178-1.313" fill="#4d5151"/><path stroke-width=".4" stroke-linecap="round" stroke-dasharray="2,2" stroke-linejoin="round" fill="none" stroke="#4d5151" d="M279.239 119.795H242.18"/><path d="m281.499 119.795-3.185-1.301.756 1.301-.756 1.301 3.185-1.301" fill="#4d5151"/><path stroke-width=".4" stroke-linecap="round" stroke-dasharray="2,2" stroke-linejoin="round" fill="none" stroke="#4d5151" d="M278.895 168.455H242.18"/><path d="m281.153 168.455-3.183-1.301.756 1.301-.756 1.3 3.183-1.3" fill="#4d5151"/><path stroke-width=".4" stroke-linecap="round" stroke-dasharray="2,2" stroke-linejoin="round" fill="none" stroke="#4d5151" d="M279.239 144.53H242.18"/><path d="m281.498 144.53-3.184-1.3.756 1.3-.756 1.3 3.184-1.3" fill="#4d5151"/><path stroke-width=".4" stroke-linecap="round" stroke-dasharray="2,2" stroke-linejoin="round" fill="none" stroke="#4d5151" d="M207.115 45.145h-39.712"/><path d="m209.375 45.145-3.184-1.301.755 1.301-.755 1.301 3.184-1.301" fill="#4d5151"/><path stroke-width=".4" stroke-linecap="round" stroke-dasharray="2,2" stroke-linejoin="round" fill="none" stroke="#4d5151" d="M207.115 72.509h-39.712"/><path d="m209.375 72.509-3.184-1.301.755 1.301-.755 1.3 3.184-1.3" fill="#4d5151"/><path stroke-width=".4" stroke-linecap="round" stroke-dasharray="2,2" stroke-linejoin="round" fill="none" stroke="#4d5151" d="M206.938 134.031H167.53"/><path d="m209.197 134.031-3.184-1.301.756 1.301-.756 1.3 3.184-1.3" fill="#4d5151"/><path stroke-width=".4" stroke-linecap="round" stroke-dasharray="2,2" stroke-linejoin="round" fill="none" stroke="#4d5151" d="M207.115 193.078h-39.474"/><path d="m209.375 193.078-3.184-1.301.755 1.301-.755 1.3 3.184-1.3" fill="#4d5151"/><path d="M61.5 101.154a1.155 1.155 0 0 1-1.153-1.163c0-.639.516-1.154 1.153-1.154.65 0 1.165.515 1.165 1.154 0 .647-.515 1.163-1.165 1.163M61.5 116.247a1.155 1.155 0 0 1-1.153-1.155c0-.649.516-1.165 1.153-1.165.65 0 1.165.516 1.165 1.165 0 .637-.515 1.155-1.165 1.155M61.5 108.7a1.152 1.152 0 0 1-1.153-1.154 1.158 1.158 0 1 1 2.318 0c0 .639-.515 1.154-1.165 1.154M61.6 129.599a1.151 1.151 0 0 1-1.155-1.155c0-.646.514-1.162 1.155-1.162a1.159 1.159 0 1 1 0 2.317M61.6 144.699c-.641 0-1.155-.52-1.155-1.162a1.159 1.159 0 1 1 2.32 0c0 .641-.52 1.162-1.165 1.162M61.6 137.156a1.16 1.16 0 0 1-1.155-1.165c0-.638.514-1.162 1.155-1.162a1.164 1.164 0 1 1 0 2.327M61.6 158.636a1.158 1.158 0 0 1-1.155-1.161 1.16 1.16 0 1 1 2.32 0c0 .637-.52 1.16-1.165 1.16M61.6 173.73c-.641 0-1.155-.52-1.155-1.156 0-.649.514-1.165 1.155-1.165a1.16 1.16 0 1 1 0 2.321M61.6 166.183a1.153 1.153 0 0 1-1.155-1.165c0-.637.514-1.156 1.155-1.156a1.16 1.16 0 1 1 0 2.32M61.6 187.665c-.641 0-1.155-.52-1.155-1.162a1.16 1.16 0 1 1 1.154 1.162M61.6 202.76a1.154 1.154 0 0 1-1.155-1.161c0-.64.514-1.161 1.155-1.161a1.162 1.162 0 1 1 0 2.322M61.6 195.214a1.156 1.156 0 0 1-1.155-1.162 1.161 1.161 0 1 1 1.154 1.162" fill="#05050a" fill-rule="evenodd"/><path stroke-width=".4" stroke-linecap="round" stroke-linejoin="round" fill="none" stroke="#4d5151" d="m147.88 42.629-78.146 6.495"/><path d="m150.131 42.442-3.28-1.033.86 1.234-.645 1.359 3.065-1.56" fill="#4d5151"/><path stroke-width=".4" stroke-linecap="round" stroke-linejoin="round" fill="none" stroke="#4d5151" d="M148.21 68.912 69.755 20.32"/><path d="m150.131 70.101-2.021-2.782-.043 1.503-1.327.708 3.391.571" fill="#4d5151"/><path stroke-width=".4" stroke-linecap="round" stroke-linejoin="round" fill="none" stroke="#4d5151" d="m147.873 75.63-78.246 2.515"/><path d="m150.131 75.557-3.224-1.198.797 1.276-.713 1.324 3.14-1.402" fill="#4d5151"/><path stroke-width=".4" stroke-linecap="round" stroke-linejoin="round" fill="none" stroke="#4d5151" d="M149.758 78.25 69.56 226.041"/><path d="m150.835 76.264-2.662 2.178 1.504-.043.783 1.284.375-3.419" fill="#4d5151"/><path stroke-width=".4" stroke-linecap="round" stroke-linejoin="round" fill="none" stroke="#4d5151" d="M148.116 195.642 69.56 226.041"/><path d="m150.224 194.827-3.439-.064 1.174.94-.235 1.486 2.5-2.362" fill="#4d5151"/><path d="M232.889 114.637a1.158 1.158 0 0 1 0-2.318 1.158 1.158 0 1 1 0 2.318M232.889 129.735a1.163 1.163 0 0 1 0-2.326 1.163 1.163 0 1 1 0 2.326M232.889 122.183a1.16 1.16 0 1 1 .007-2.32 1.16 1.16 0 0 1-.007 2.32M232.889 66.61a1.16 1.16 0 1 1 .008-2.322 1.16 1.16 0 0 1-.008 2.322M232.889 81.709a1.163 1.163 0 0 1 0-2.326 1.163 1.163 0 1 1 0 2.326M232.889 74.152a1.158 1.158 0 0 1 0-2.317 1.158 1.158 0 1 1 0 2.317M217.797 74.155a1.164 1.164 0 0 1-1.163-1.165 1.163 1.163 0 0 1 2.326 0c0 .646-.522 1.165-1.163 1.165M217.797 89.255a1.168 1.168 0 0 1-1.163-1.166c0-.636.524-1.162 1.163-1.162.641 0 1.163.526 1.163 1.162 0 .642-.522 1.166-1.163 1.166M217.797 81.701a1.162 1.162 0 0 1-1.163-1.155 1.162 1.162 0 1 1 2.326 0 1.16 1.16 0 0 1-1.163 1.155M217.797 46.737a1.16 1.16 0 1 1 0-2.321 1.16 1.16 0 1 1 0 2.321M217.797 61.836a1.168 1.168 0 0 1-1.163-1.164c0-.638.524-1.162 1.163-1.162.641 0 1.163.524 1.163 1.162 0 .639-.522 1.164-1.163 1.164M217.797 54.289a1.168 1.168 0 0 1-1.163-1.162c0-.64.524-1.165 1.163-1.165.641 0 1.163.525 1.163 1.165 0 .637-.522 1.162-1.163 1.162M232.889 158.446a1.164 1.164 0 0 1 0-2.326 1.164 1.164 0 1 1 0 2.326M232.889 173.536a1.157 1.157 0 0 1-1.157-1.161c0-.641.52-1.156 1.157-1.156.648 0 1.165.515 1.165 1.156 0 .647-.517 1.16-1.165 1.16M232.889 165.993a1.164 1.164 0 0 1 0-2.33 1.164 1.164 0 1 1 0 2.33M217.797 179.728a1.16 1.16 0 0 1-1.163-1.156 1.16 1.16 0 0 1 1.163-1.161 1.16 1.16 0 1 1 0 2.317M217.797 194.827a1.168 1.168 0 0 1-1.163-1.162c0-.64.524-1.165 1.163-1.165.641 0 1.163.525 1.163 1.165 0 .637-.522 1.162-1.163 1.162M217.797 187.283a1.168 1.168 0 0 1-1.163-1.165 1.164 1.164 0 0 1 2.326 0c0 .641-.522 1.165-1.163 1.165M217.797 120.319a1.17 1.17 0 0 1-1.163-1.166c0-.636.524-1.161 1.163-1.161.641 0 1.163.525 1.163 1.161 0 .64-.522 1.166-1.163 1.166M217.797 135.408a1.161 1.161 0 0 1-1.163-1.161c0-.64.524-1.156 1.163-1.156a1.16 1.16 0 1 1 0 2.317M217.797 127.865a1.168 1.168 0 0 1-1.163-1.165c0-.639.524-1.162 1.163-1.162.641 0 1.163.523 1.163 1.162 0 .64-.522 1.165-1.163 1.165" fill="#05050a" fill-rule="evenodd"/><path stroke-width=".6150000000000001" stroke-linecap="round" stroke-dasharray="1.8453,1.8453" stroke-linejoin="round" fill="none" stroke="#4d5151" d="M242.18 40.118h-32.805v165.82h32.805V40.118ZM69.057 91.863H53.961v117.864h15.096V91.863Z"/><path stroke-width=".6150000000000001" stroke-linecap="round" stroke-linejoin="round" fill="none" stroke="#05050a" d="M281.146 72.129a8.707 8.707 0 0 1 8.708-8.708 8.707 8.707 0 0 1 8.709 8.708 8.707 8.707 0 0 1-8.709 8.708 8.708 8.708 0 0 1-8.708-8.708ZM281.146 95.127a8.708 8.708 0 0 1 8.708-8.709 8.708 8.708 0 0 1 8.709 8.709 8.706 8.706 0 0 1-8.709 8.707 8.707 8.707 0 0 1-8.708-8.707ZM281.383 169.446c0-4.819 3.901-8.71 8.709-8.71a8.707 8.707 0 0 1 8.712 8.71c0 4.808-3.902 8.708-8.712 8.708-4.808 0-8.709-3.9-8.709-8.708Z"/><path d="M291.859 95.781v.101a2.674 2.674 0 0 1-.696-.491 2.772 2.772 0 0 1-.615-.948 3.025 3.025 0 0 1-.216-1.132c0-.572.141-1.095.423-1.565.283-.473.65-.81 1.104-1.014v.116a1.562 1.562 0 0 0-.558.517 2.35 2.35 0 0 0-.326.826c-.074.335-.11.684-.11 1.048 0 .396.031.752.093 1.076.048.255.105.46.173.614.069.153.161.302.275.444.117.143.268.278.453.408M161.538 68.63l.914-.444h.09v3.168c0 .211.01.343.027.394a.208.208 0 0 0 .11.12c.054.027.168.043.337.046v.102h-1.412v-.102c.177-.003.292-.019.343-.045a.216.216 0 0 0 .108-.109c.021-.045.03-.18.03-.406v-2.026c0-.273-.008-.449-.027-.526a.221.221 0 0 0-.071-.13.193.193 0 0 0-.123-.042.765.765 0 0 0-.286.085l-.04-.085M294.707 90.848v-.116c.279.139.514.302.699.489.264.27.469.586.613.95.143.363.214.741.214 1.134 0 .572-.139 1.093-.42 1.566-.283.471-.651.809-1.106 1.011v-.101a1.65 1.65 0 0 0 .56-.517c.147-.217.255-.493.327-.828a5.05 5.05 0 0 0 .105-1.049 5.68 5.68 0 0 0-.092-1.076 2.655 2.655 0 0 0-.171-.612 2.133 2.133 0 0 0-.276-.444 2.173 2.173 0 0 0-.453-.407M291.906 100.878l-.262.724h-2.214v-.103c.65-.595 1.109-1.079 1.375-1.456.265-.377.398-.72.398-1.032a.813.813 0 0 0-.219-.588.694.694 0 0 0-.522-.23.82.82 0 0 0-.497.162.93.93 0 0 0-.325.475h-.103c.046-.34.165-.603.356-.787a.995.995 0 0 1 .715-.273c.305 0 .559.098.763.293a.934.934 0 0 1 .307.692c0 .19-.045.381-.133.571-.138.299-.358.616-.665.949-.459.502-.747.806-.861.909h.98c.198 0 .34-.009.42-.022a.564.564 0 0 0 .217-.091.598.598 0 0 0 .169-.193h.101M292.206 72.793v.102a2.67 2.67 0 0 1-.697-.494 2.788 2.788 0 0 1-.615-.946 3.079 3.079 0 0 1-.215-1.131c0-.574.14-1.095.423-1.568.283-.47.651-.809 1.104-1.011v.115a1.602 1.602 0 0 0-.56.517 2.418 2.418 0 0 0-.326.827 4.96 4.96 0 0 0-.108 1.046c0 .395.031.754.093 1.078.047.254.105.459.173.612.069.155.161.304.276.444.116.143.266.28.452.409M161.566 40.359l.915-.447h.091v3.17c0 .211.01.342.026.393a.212.212 0 0 0 .11.121c.055.027.168.041.337.045v.104h-1.413v-.104c.179-.004.294-.018.345-.045a.22.22 0 0 0 .106-.107c.022-.046.033-.182.033-.407v-2.027a3.14 3.14 0 0 0-.028-.526.233.233 0 0 0-.07-.13.204.204 0 0 0-.124-.04.745.745 0 0 0-.287.085l-.041-.085M295.053 67.86v-.116c.281.138.514.302.7.49.264.27.469.586.612.948.144.363.216.741.216 1.134 0 .573-.141 1.095-.422 1.565-.282.473-.65.81-1.106 1.012v-.1c.227-.129.414-.3.561-.518.147-.216.256-.492.325-.829a4.95 4.95 0 0 0 .108-1.047c0-.393-.03-.752-.091-1.077a2.717 2.717 0 0 0-.174-.611 2.041 2.041 0 0 0-.275-.443 2.129 2.129 0 0 0-.454-.408M289.704 75.227l.913-.446h.092v3.172c0 .209.009.34.027.393.017.05.053.09.109.118.055.029.168.043.337.048v.102h-1.411v-.102c.177-.005.291-.019.343-.047a.23.23 0 0 0 .108-.108c.021-.045.03-.179.03-.404v-2.028c0-.274-.008-.448-.028-.526a.21.21 0 0 0-.07-.129.185.185 0 0 0-.123-.043.734.734 0 0 0-.285.086l-.042-.086M291.93 168.984v.103a2.614 2.614 0 0 1-.698-.492 2.772 2.772 0 0 1-.615-.947 3.063 3.063 0 0 1-.216-1.13c0-.576.142-1.098.423-1.568.283-.472.652-.809 1.106-1.013v.117a1.616 1.616 0 0 0-.56.514c-.145.22-.255.495-.325.828a4.904 4.904 0 0 0-.108 1.047c0 .395.03.755.09 1.077.047.255.107.46.173.615.07.154.161.3.277.444.116.142.266.276.453.405M294.776 164.054v-.117c.281.14.515.304.701.491.263.27.467.586.612.947.142.365.216.742.216 1.135a3.02 3.02 0 0 1-.422 1.567c-.282.47-.651.808-1.107 1.01v-.103c.227-.127.414-.298.561-.514.146-.218.256-.493.326-.828a5.13 5.13 0 0 0 .107-1.049c0-.393-.03-.753-.091-1.077a2.721 2.721 0 0 0-.173-.61 2.06 2.06 0 0 0-.277-.446 2.146 2.146 0 0 0-.453-.406M161.237 190.63l.913-.445h.093v3.17c0 .21.007.342.026.394.017.051.054.09.109.118.056.028.168.044.339.047v.103h-1.414v-.103c.177-.003.292-.02.343-.045a.22.22 0 0 0 .109-.108c.02-.045.03-.18.03-.406v-2.026c0-.274-.009-.45-.028-.526a.214.214 0 0 0-.071-.131.19.19 0 0 0-.123-.042.734.734 0 0 0-.284.086l-.042-.086" fill="#05050a"/><path stroke-width=".6150000000000001" stroke-linecap="round" stroke-linejoin="round" fill="none" stroke="#05050a" d="M149.983 44.012c0-4.806 3.904-8.707 8.712-8.707s8.708 3.901 8.708 8.707c0 4.812-3.9 8.712-8.708 8.712a8.714 8.714 0 0 1-8.712-8.712ZM149.983 72.509c0-4.81 3.904-8.709 8.712-8.709a8.71 8.71 0 0 1 0 17.417c-4.808 0-8.712-3.898-8.712-8.708ZM150.224 194.15a8.709 8.709 0 1 1 17.417 0 8.707 8.707 0 0 1-8.71 8.709 8.708 8.708 0 0 1-8.707-8.709Z"/><path d="M160.739 73.003v.103a2.6 2.6 0 0 1-.698-.492 2.749 2.749 0 0 1-.615-.947 3.101 3.101 0 0 1-.216-1.131c0-.572.142-1.093.424-1.565.282-.471.651-.808 1.105-1.011v.116a1.587 1.587 0 0 0-.56.514 2.4 2.4 0 0 0-.327.828c-.07.334-.106.682-.106 1.046 0 .395.028.754.088 1.076.051.254.109.459.177.613.067.154.159.302.274.444.114.142.267.278.454.406M164.394 68.075v-.116a2.6 2.6 0 0 1 .701.49c.261.268.467.585.612.947.142.363.213.741.213 1.133a3 3 0 0 1-.42 1.564c-.282.472-.649.809-1.106 1.012v-.103c.226-.126.415-.299.559-.515.148-.217.256-.492.329-.828.07-.335.104-.683.104-1.046 0-.393-.03-.752-.09-1.077a2.777 2.777 0 0 0-.173-.611 2.065 2.065 0 0 0-.275-.443 2.102 2.102 0 0 0-.454-.407M160.231 77.887l-.264.722h-2.213v-.102c.651-.594 1.109-1.08 1.376-1.455.266-.378.398-.721.398-1.033a.82.82 0 0 0-.219-.587.696.696 0 0 0-.521-.229.83.83 0 0 0-.498.161.917.917 0 0 0-.325.475h-.103c.046-.341.166-.603.356-.785a.992.992 0 0 1 .717-.274c.304 0 .555.099.761.293a.931.931 0 0 1 .306.691c0 .191-.045.381-.135.572-.136.298-.356.613-.662.947-.461.502-.747.805-.863.908h.981c.199 0 .34-.007.421-.021a.558.558 0 0 0 .384-.283h.103M160.739 44.508v.102a2.622 2.622 0 0 1-.698-.492 2.745 2.745 0 0 1-.615-.946 3.107 3.107 0 0 1-.216-1.132c0-.572.142-1.093.424-1.565.282-.471.651-.808 1.105-1.011v.117a1.569 1.569 0 0 0-.56.514 2.395 2.395 0 0 0-.327.827 5.09 5.09 0 0 0-.106 1.046c0 .395.028.753.088 1.076.051.255.109.459.177.613.067.155.159.302.274.444.114.142.267.278.454.407M164.394 39.581v-.117c.28.139.514.302.701.491.261.269.467.584.612.947.142.363.213.74.213 1.133 0 .571-.14 1.093-.42 1.565-.282.471-.649.808-1.106 1.01v-.102c.226-.127.415-.299.559-.516.148-.217.256-.493.329-.827.07-.335.104-.684.104-1.047 0-.393-.03-.752-.09-1.076a2.76 2.76 0 0 0-.173-.611 2.071 2.071 0 0 0-.275-.444 2.126 2.126 0 0 0-.454-.406M157.733 46.134l.913-.445h.093v3.168c0 .209.009.34.026.393a.217.217 0 0 0 .108.12c.056.026.168.042.337.046v.102h-1.411v-.102c.179-.004.291-.02.344-.046a.22.22 0 0 0 .107-.108c.022-.045.033-.18.033-.405v-2.025c0-.273-.011-.449-.031-.527a.215.215 0 0 0-.069-.129.186.186 0 0 0-.122-.042.743.743 0 0 0-.286.087l-.042-.087M160.5 194.644v.102a2.657 2.657 0 0 1-.697-.492 2.81 2.81 0 0 1-.615-.946 3.045 3.045 0 0 1-.215-1.132c0-.57.141-1.093.423-1.565.281-.471.649-.808 1.104-1.01v.115a1.604 1.604 0 0 0-.56.515 2.363 2.363 0 0 0-.324.827 4.827 4.827 0 0 0-.109 1.046c0 .395.031.754.091 1.076.048.255.107.46.174.613.068.154.161.302.275.444.118.142.267.277.453.407M164.156 189.716v-.115c.282.137.514.301.698.489.268.27.47.585.613.948.146.362.217.74.217 1.133 0 .572-.141 1.093-.422 1.564-.282.472-.652.808-1.106 1.011v-.102c.228-.127.413-.3.561-.516.144-.217.254-.492.325-.827.074-.335.108-.684.108-1.047 0-.393-.031-.752-.091-1.076a2.77 2.77 0 0 0-.173-.612 2.069 2.069 0 0 0-.277-.443 2.126 2.126 0 0 0-.453-.407M118.22 17.777v.103a2.665 2.665 0 0 1-.699-.494 2.76 2.76 0 0 1-.614-.947 3.036 3.036 0 0 1-.218-1.133c0-.572.143-1.094.425-1.567.282-.472.652-.809 1.106-1.011v.115a1.6 1.6 0 0 0-.56.516 2.38 2.38 0 0 0-.327.828 4.97 4.97 0 0 0-.108 1.047c0 .395.03.755.091 1.078.049.254.106.459.175.613.068.154.159.303.276.446.114.14.266.277.453.406M118.859 13.278l.915-.445h.092v3.171c0 .21.008.342.026.394a.203.203 0 0 0 .109.118c.057.028.168.044.337.048v.102h-1.413v-.102c.179-.004.293-.019.345-.046a.233.233 0 0 0 .107-.108c.021-.045.031-.181.031-.406v-2.028c0-.272-.01-.448-.028-.526a.223.223 0 0 0-.069-.13.2.2 0 0 0-.124-.042.746.746 0 0 0-.287.086l-.041-.086M121.058 12.843v-.115c.28.138.515.301.7.49.265.27.469.586.614.948.143.364.215.742.215 1.135 0 .572-.14 1.094-.422 1.566s-.651.809-1.107 1.013v-.103c.227-.128.414-.3.561-.517.147-.216.256-.493.326-.828a4.98 4.98 0 0 0 .108-1.048 5.8 5.8 0 0 0-.093-1.079 2.64 2.64 0 0 0-.172-.611 2.112 2.112 0 0 0-.275-.444 2.214 2.214 0 0 0-.455-.407M191.885 35.464v.103a2.657 2.657 0 0 1-.698-.493 2.742 2.742 0 0 1-.614-.945 3.065 3.065 0 0 1-.218-1.134c0-.572.142-1.093.424-1.565.283-.47.653-.809 1.106-1.011v.116a1.59 1.59 0 0 0-.56.516 2.367 2.367 0 0 0-.326.827 4.94 4.94 0 0 0-.108 1.046c0 .394.029.753.09 1.076.05.255.107.459.175.613.069.154.16.303.276.444.115.142.266.279.453.407M195.073 33.632l-.264.723h-2.215v-.103c.652-.594 1.111-1.08 1.377-1.455.265-.377.398-.721.398-1.033a.818.818 0 0 0-.219-.587.698.698 0 0 0-.525-.229.816.816 0 0 0-.496.161.935.935 0 0 0-.325.476h-.102c.045-.342.165-.605.356-.788a.993.993 0 0 1 .714-.273c.307 0 .56.097.765.293a.93.93 0 0 1 .306.692c0 .19-.045.38-.134.57-.135.3-.357.615-.665.949-.46.502-.747.806-.86.909h.981c.199 0 .337-.008.418-.022a.537.537 0 0 0 .217-.091.587.587 0 0 0 .171-.192h.102M195.765 30.535v-.117c.28.139.513.303.699.491.265.269.47.585.613.947.144.363.215.74.215 1.134 0 .572-.141 1.094-.42 1.565-.283.471-.651.809-1.107 1.012v-.103c.227-.127.414-.3.561-.516.147-.217.255-.494.326-.827.072-.336.106-.685.106-1.048 0-.393-.029-.753-.091-1.077a2.701 2.701 0 0 0-.172-.612 2.12 2.12 0 0 0-.276-.442 2.1 2.1 0 0 0-.454-.407M264.212 61.741v.104a2.712 2.712 0 0 1-.7-.494 2.78 2.78 0 0 1-.616-.947 3.037 3.037 0 0 1-.214-1.134c0-.574.139-1.095.421-1.568.284-.471.653-.81 1.109-1.012v.116a1.606 1.606 0 0 0-.563.515 2.464 2.464 0 0 0-.327.83 5.162 5.162 0 0 0-.107 1.047c0 .395.03.754.094 1.078.044.255.104.459.172.613a2.016 2.016 0 0 0 .731.852M274.862 56.806v-.116c.281.138.517.302.703.491.262.27.467.586.613.948.142.364.216.742.216 1.135 0 .572-.14 1.095-.421 1.567-.284.473-.655.81-1.111 1.014v-.104c.229-.126.414-.298.562-.516.147-.217.258-.494.329-.828.069-.336.106-.686.106-1.049 0-.394-.032-.753-.092-1.079a2.76 2.76 0 0 0-.173-.611 2.124 2.124 0 0 0-.276-.445 2.167 2.167 0 0 0-.456-.407M331.596 66.492v.102a2.647 2.647 0 0 1-.697-.491 2.834 2.834 0 0 1-.615-.945 3.039 3.039 0 0 1-.216-1.13c0-.571.141-1.092.422-1.562.282-.471.653-.807 1.106-1.009v.116a1.582 1.582 0 0 0-.56.513 2.369 2.369 0 0 0-.325.826c-.072.333-.11.681-.11 1.044 0 .394.032.752.093 1.074.047.255.108.459.174.612.069.154.159.301.275.443.115.141.265.278.453.407M336.131 61.573v-.116c.278.138.513.301.699.489.264.269.468.584.61.945.146.362.217.74.217 1.131a2.97 2.97 0 0 1-.424 1.562c-.279.471-.646.807-1.102 1.01v-.102c.227-.127.414-.298.557-.515.15-.217.256-.492.329-.826.071-.334.105-.682.105-1.046 0-.392-.028-.75-.092-1.073a2.508 2.508 0 0 0-.172-.61 2.086 2.086 0 0 0-.273-.443 2.173 2.173 0 0 0-.454-.406M24.123 20l.994-.483h.098v3.446c0 .228.008.371.03.428a.226.226 0 0 0 .118.129c.059.03.18.047.366.051v.111h-1.534v-.111c.19-.004.316-.021.375-.05a.25.25 0 0 0 .115-.118c.022-.049.033-.195.033-.44v-2.204c0-.297-.01-.488-.03-.572a.26.26 0 0 0-.076-.142.208.208 0 0 0-.135-.045.81.81 0 0 0-.31.093L24.122 20M26.218 51.721l-.286.784h-2.401v-.111c.707-.644 1.205-1.171 1.49-1.578.289-.408.434-.782.434-1.119a.89.89 0 0 0-.238-.637.756.756 0 0 0-.566-.249.884.884 0 0 0-.538.176 1.03 1.03 0 0 0-.356.515h-.108c.049-.371.179-.656.385-.852.207-.198.464-.298.776-.298.33 0 .604.106.826.318a.999.999 0 0 1 .33.751c0 .205-.047.412-.142.617-.15.325-.39.668-.722 1.029-.496.545-.808.873-.93.984h1.062c.216 0 .367-.007.455-.023a.597.597 0 0 0 .235-.098.627.627 0 0 0 .182-.209h.112M23.712 78.285c.117-.276.264-.488.442-.637a.987.987 0 0 1 .663-.224c.328 0 .578.105.752.319.134.158.2.328.2.508 0 .298-.187.604-.56.921.25.099.439.24.57.422.126.183.19.397.19.644 0 .353-.11.659-.335.918-.295.338-.718.506-1.275.506-.275 0-.461-.034-.561-.102-.097-.069-.15-.142-.15-.221 0-.057.025-.109.07-.153a.25.25 0 0 1 .173-.066c.05 0 .103.008.152.024.035.011.11.046.232.111.122.063.205.1.25.111a.801.801 0 0 0 .238.034.718.718 0 0 0 .535-.237.79.79 0 0 0 .226-.563c0-.159-.035-.314-.108-.464a.77.77 0 0 0-.168-.256 1.237 1.237 0 0 0-.357-.218 1.122 1.122 0 0 0-.46-.099h-.095v-.09c.159-.019.318-.077.478-.171a.89.89 0 0 0 .345-.34.87.87 0 0 0 .11-.437.668.668 0 0 0-.194-.501.66.66 0 0 0-.484-.191c-.311 0-.568.166-.78.499l-.1-.047M23.506 228.91c.201-.201.319-.315.354-.345a1.11 1.11 0 0 1 .29-.177.828.828 0 0 1 .309-.063c.171 0 .322.049.446.15.124.1.208.245.248.435.208-.24.38-.397.522-.473a.937.937 0 0 1 .438-.112.68.68 0 0 1 .387.112.735.735 0 0 1 .269.368c.047.116.067.297.067.546v1.182c0 .172.015.29.039.354a.25.25 0 0 0 .113.112c.053.032.14.047.26.047v.107h-1.354v-.107h.057c.119 0 .212-.023.275-.069a.263.263 0 0 0 .1-.152c.008-.035.012-.132.012-.292v-1.182c0-.225-.027-.382-.081-.474-.078-.129-.202-.192-.375-.192a.695.695 0 0 0-.318.08 1.7 1.7 0 0 0-.391.295l-.007.033.007.129v1.31c0 .19.012.306.033.352.02.047.059.085.119.115.058.032.155.047.296.047v.107h-1.387v-.107c.15 0 .254-.018.312-.054a.3.3 0 0 0 .119-.162c.009-.034.014-.133.014-.297v-1.182c0-.225-.034-.384-.098-.483a.422.422 0 0 0-.372-.192.653.653 0 0 0-.318.087 1.225 1.225 0 0 0-.385.297v1.473c0 .18.012.297.035.351a.26.26 0 0 0 .114.122c.05.027.147.04.298.04v.107h-1.36v-.107a.602.602 0 0 0 .264-.04.238.238 0 0 0 .113-.129c.028-.06.04-.174.04-.344v-1.05c0-.301-.01-.497-.026-.586-.015-.066-.035-.111-.068-.135-.028-.026-.07-.038-.122-.038a.556.556 0 0 0-.2.045l-.045-.108.826-.336h.13v.585" fill="#05050a"/><text fill="#05050a" xml:space="preserve" transform="translate(0 241)" font-size="10" font-family="Times" font-style="italic"><tspan y="-161.577" x="19.934">r</tspan><tspan y="-190.821" x="20.263">r</tspan><tspan y="-219.395" x="20.263">r</tspan><tspan y="-11.26" x="19.969">r</tspan><tspan y="-158.235" x="381.072">h</tspan><tspan y="-132.876" x="380.517">h</tspan><tspan y="-82.49" x="380.517">h</tspan></text><text fill="#05050a" xml:space="preserve" transform="translate(0 241)" font-size="9" font-family="TimesNewRomanPSMT"><tspan y="-193.7" x="151.906">Ψ</tspan><tspan y="-164.735" x="151.672">Ψ</tspan><tspan y="-42.969" x="151.382">Ψ</tspan><tspan y="-165.769" x="283.02">Ψ</tspan><tspan y="-141.54" x="282.084">Ψ</tspan><tspan y="-67.204" x="282.853">Ψ</tspan></text><path d="M31.427 19.872h20.5" fill="#4d5151"/><path stroke-width=".4" stroke-miterlimit="10" fill="none" stroke="#4d5151" d="M31.427 19.872h18.59"/><path d="m49.118 21.057.503-1.185-.503-1.185 2.809 1.185-2.81 1.185" fill="#4d5151"/><text fill="#4d5151" xml:space="preserve" transform="matrix(.98425 0 0 1.016 0 241)" font-size="6.89" font-family="Times" font-weight="bold"><tspan y="-217.831" x="41.325">+</tspan></text><text fill="#4d5151" xml:space="preserve" transform="matrix(.98425 0 0 1.016 0 241)" font-size="6.89" font-family="Times" font-weight="bold"><tspan y="-217.831" x="41.325">+</tspan></text><path d="M31.427 49.225h20.5" fill="#4d5151"/><path stroke-width=".4" stroke-miterlimit="10" fill="none" stroke="#4d5151" d="M31.427 49.225h18.59"/><path d="m49.118 50.411.503-1.186-.503-1.184 2.809 1.184-2.81 1.186" fill="#4d5151"/><text fill="#4d5151" xml:space="preserve" transform="translate(0 241)" font-size="7" font-family="Times" font-weight="bold"><tspan y="-191.964" x="40.408">+</tspan></text><text fill="#4d5151" xml:space="preserve" transform="translate(0 241)" font-size="7" font-family="Times" font-weight="bold"><tspan y="-191.964" x="40.408">+</tspan></text><path d="M31.427 78.262h20.5" fill="#4d5151"/><path stroke-width=".4" stroke-miterlimit="10" fill="none" stroke="#4d5151" d="M31.427 78.262h18.59"/><path d="m49.118 79.447.503-1.185-.503-1.185 2.809 1.185-2.81 1.185" fill="#4d5151"/><text fill="#4d5151" xml:space="preserve" transform="translate(0 241)" font-size="7" font-family="Times" font-weight="bold"><tspan y="-162.927" x="40.408">+</tspan></text><text fill="#4d5151" xml:space="preserve" transform="translate(0 241)" font-size="7" font-family="Times" font-weight="bold"><tspan y="-162.927" x="40.408">+</tspan></text><path d="M31.427 227.347h20.5" fill="#4d5151"/><path stroke-width=".4" stroke-miterlimit="10" fill="none" stroke="#4d5151" d="M31.427 227.347h18.59"/><path d="m49.118 228.532.503-1.185-.503-1.185 2.809 1.185-2.81 1.185" fill="#4d5151"/><text fill="#4d5151" xml:space="preserve" transform="translate(0 241)" font-size="7" font-family="Times" font-weight="bold"><tspan y="-13.842" x="40.408">+</tspan></text><text fill="#4d5151" xml:space="preserve" transform="translate(0 241)" font-size="7" font-family="Times" font-weight="bold"><tspan y="-13.842" x="40.408">+</tspan></text><path d="M30.7 151.687h23" fill="#4d5151"/><path stroke-width=".4" stroke-miterlimit="10" fill="none" stroke="#4d5151" d="M30.7 151.687h21.09"/><path d="m50.891 152.872.504-1.185-.504-1.185 2.81 1.185-2.81 1.185" fill="#4d5151"/><text fill="#4d5151" xml:space="preserve" transform="translate(0 241)" font-size="7" font-family="Times" font-weight="bold"><tspan y="-89.502" x="40.408">+</tspan></text><text fill="#4d5151" xml:space="preserve" transform="translate(0 241)" font-size="7" font-family="Times" font-weight="bold"><tspan y="-89.502" x="40.408">+</tspan></text><text fill="#05050a" xml:space="preserve" transform="matrix(0 -1 1 0 0 241)" font-size="9" font-family="TimesNewRomanPSMT"><tspan y="7.479" x="31.4621 37.961606 42.461606 46.961606 50.956239 53.95324 57.45568 61.45031 64.44731 66.9478 70.94243 73.44292 75.69292 79.687549 82.188037 84.68852 88.68315 92.67779 97.17779 99.42779 103.92779 108.42779 110.67779 115.17779 119.172428 122.169429 124.669918 127.1704 131.16503 133.66551 136.16602 140.66602 142.91602 147.41602 151.91602 155.41846 159.4131 162.4101 166.9101 170.90473 175.40473 177.65473 181.15717 185.15181 192.1523 196.6523 199.15279">Adversarial attack on partially observed sample</tspan></text><text fill="#05050a" xml:space="preserve" transform="matrix(0 1 -1 0 0 241)" font-size="9" font-family="TimesNewRomanPSMT"><tspan y="-401.992" x="-168.416 -162.91844 -158.41844 -151.91893 -148.92194 -144.42194 -141.92145 -134.92096 -130.42096 -126.42632 -123.925838 -121.42534 -116.92534 -112.42534 -108.4307 -105.930217 -103.680217 -101.430217 -97.92778 -93.93314 -86.932659 -82.432659 -79.93217">Low-dimnetional  sample</tspan></text><text fill="#05050a" xml:space="preserve" transform="translate(0 241)" font-size="9" font-family="TimesNewRomanPSMT"><tspan y="-10.913" x="165.684 171.183 175.179 177.681 181.677 186.177 188.679 190.929 195.429 199.425 202.422 204.924 208.92 213.42 215.922 219.918 223.419 225.669 228.666 235.164 237.666 242.166 246.666 250.662 255.162 257.412 262.91099 266.90699 271.40699 275.40299 278.4 281.901">Latent variables (Hidden Layers)</tspan></text><text fill="#05050a" xml:space="preserve" transform="translate(0 241)" font-size="7" font-family="Times" font-style="italic"><tspan y="-40.081" x="156.999">l</tspan></text><text fill="#05050a" xml:space="preserve" transform="translate(0 241)" font-size="4" font-family="TimesNewRomanPSMT"><tspan y="-40.081" x="158.943">1</tspan></text><text fill="#05050a" xml:space="preserve" transform="translate(0 241)" font-size="7" font-family="Times" font-style="italic"><tspan y="-65.172" x="289.896">l</tspan></text><text fill="#05050a" xml:space="preserve" transform="translate(0 241)" font-size="4" font-family="Times" font-style="italic"><tspan y="-65.172" x="291.841">p</tspan></text><text fill="#05050a" xml:space="preserve" transform="translate(0 241)" font-size="5" font-family="Times" font-style="italic"><tspan y="-169.957" x="292.536">p</tspan><tspan y="-147.123" x="292.269">p</tspan><tspan y="-74.09" x="292.323">p</tspan></text><text fill="#05050a" xml:space="preserve" transform="translate(0 241)" font-size="7" font-family="Times" font-style="italic"><tspan y="-80.09" x="384.997">l</tspan></text><text fill="#05050a" xml:space="preserve" transform="translate(0 241)" font-size="4" font-family="Times" font-style="italic"><tspan y="-80.09" x="386.942">p</tspan></text><text fill="#05050a" xml:space="preserve" transform="translate(0 241)" font-size="12" font-family="Times" font-style="italic"><tspan y="-218.457" x="56.424">v</tspan><tspan y="-189.777" x="56.206">v</tspan><tspan y="-160.745" x="56.731">v</tspan><tspan y="-11.261" x="56.206">v</tspan></text><text fill="#05050a" xml:space="preserve" transform="translate(0 241)" font-size="7" font-family="Times" font-style="italic"><tspan y="-175.784" x="332.414">p</tspan></text><text fill="#05050a" xml:space="preserve" transform="translate(0 241)" font-size="9" font-family="TimesNewRomanPSMT"><tspan y="-171.817" x="320.547">W</tspan></text><text fill="#05050a" xml:space="preserve" transform="translate(0 241)" font-size="7" font-family="Times" font-style="italic"><tspan y="-180.713" x="265.416">p</tspan></text><text fill="#05050a" xml:space="preserve" transform="translate(0 241)" font-size="5" font-family="TimesNewRomanPSMT"><tspan y="-180.713" x="268.916">-</tspan></text><text fill="#05050a" xml:space="preserve" transform="translate(0 241)" font-size="6" font-family="TimesNewRomanPSMT"><tspan y="-180.713" x="270.581">1</tspan></text><text fill="#05050a" xml:space="preserve" transform="translate(0 241)" font-size="9" font-family="TimesNewRomanPSMT"><tspan y="-177.256" x="253.495">W</tspan><tspan y="-203.087" x="181.005">W</tspan><tspan y="-220.354" x="107.665">W</tspan></text><path stroke-width=".6150000000000001" stroke-linecap="round" stroke-dasharray="1.8453,1.8453" stroke-linejoin="round" fill="none" stroke="#4d5151" d="M392.462 118.152h-15.096v23.225h15.096v-23.225ZM297.149 107.637h-15.098v48.77h15.098v-48.77ZM166.758 88.386h-15.095v89.41h15.095v-89.41Z"/></g><text fill="#05050a" xml:space="preserve" transform="rotate(90 -58.458 136.353)" font-size="9" font-family="TimesNewRomanPSMT"><tspan y="-1.569" x="-92.9763 -87.97094 -83.9763 -80.9793 -78.47881 -75.978328 -71.98369 -69.48319 -66.982707 -62.482706 -60.232706 -55.732706 -51.232706 -47.73027 -43.73564 -40.73864 -36.23864 -32.24401 -27.74401 -25.49401 -21.991572 -17.996945 -10.996451 -6.4964516 -3.9959617">Partially observed sample</tspan></text></svg>